<?xml version="1.0" encoding="utf-8"?>
<!-- Generator: Adobe Illustrator 24.0.1, SVG Export Plug-In . SVG Version: 6.00 Build 0)  -->
<svg version="1.1" id="Livello_1" xmlns="http://www.w3.org/2000/svg" xmlns:xlink="http://www.w3.org/1999/xlink" x="0px" y="0px"
	 viewBox="0 0 280 85.4" style="enable-background:new 0 0 280 85.4;" xml:space="preserve">
<style type="text/css">
	.st0{fill:url(#SVGID_1_);}
	.st1{fill:#FFFFFF;}
</style>
<g>
	<g>
		<linearGradient id="SVGID_1_" gradientUnits="userSpaceOnUse" x1="39.4555" y1="6.7716" x2="39.4555" y2="85.1801">
			<stop  offset="0" style="stop-color:#01EB9F"/>
			<stop  offset="1" style="stop-color:#0799F4"/>
		</linearGradient>
		<path class="st0" d="M5.2,26.4h4.9v-9.8h68.6c0-5.4-4.4-9.8-9.8-9.8H0.3v14.7C0.3,24.2,2.4,26.4,5.2,26.4z M68.9,36.2H0.3v39.2
			c0,5.4,4.4,9.8,9.8,9.8h68.6V46C78.7,40.6,74.3,36.2,68.9,36.2z M68.9,75.4H15c-2.7,0-4.9-2.2-4.9-4.9V46H64
			c2.7,0,4.9,2.2,4.9,4.9V75.4z"/>
	</g>
</g>
<g>
	<path class="st1" d="M128.2,6.4v29.5h-3.8v-5.8c-1.2,2-2.8,3.5-4.7,4.5c-2,1-4.2,1.6-6.6,1.6c-2.8,0-5.3-0.6-7.5-1.9
		c-2.2-1.3-4-3-5.3-5.3c-1.3-2.3-1.9-4.9-1.9-7.8c0-2.9,0.6-5.5,1.9-7.8c1.3-2.3,3-4,5.3-5.3c2.2-1.3,4.7-1.9,7.5-1.9
		c2.4,0,4.5,0.5,6.5,1.5c1.9,1,3.5,2.4,4.7,4.3V6.4H128.2z M119,31.2c1.7-1,3-2.3,3.9-4.1c1-1.8,1.4-3.8,1.4-6c0-2.2-0.5-4.2-1.4-6
		c-1-1.8-2.3-3.1-3.9-4.1c-1.7-1-3.5-1.4-5.6-1.4c-2.1,0-4,0.5-5.6,1.4c-1.7,1-3,2.3-3.9,4.1c-1,1.8-1.4,3.8-1.4,6
		c0,2.2,0.5,4.2,1.4,6c1,1.8,2.3,3.1,3.9,4.1c1.7,1,3.5,1.4,5.6,1.4C115.4,32.6,117.3,32.2,119,31.2z"/>
	<path class="st1" d="M164.1,6.4L151,35.9h-4.1l-13-29.5h4.1l11,25.1l11.1-25.1H164.1z"/>
	<path class="st1" d="M195.7,6.4v29.5h-3.8v-5.8c-1.2,2-2.8,3.5-4.7,4.5c-2,1-4.2,1.6-6.6,1.6c-2.8,0-5.3-0.6-7.5-1.9
		c-2.2-1.3-4-3-5.3-5.3c-1.3-2.3-1.9-4.9-1.9-7.8c0-2.9,0.6-5.5,1.9-7.8c1.3-2.3,3-4,5.3-5.3c2.2-1.3,4.7-1.9,7.5-1.9
		c2.4,0,4.5,0.5,6.5,1.5c1.9,1,3.5,2.4,4.7,4.3V6.4H195.7z M186.4,31.2c1.7-1,3-2.3,3.9-4.1c1-1.8,1.4-3.8,1.4-6
		c0-2.2-0.5-4.2-1.4-6c-1-1.8-2.3-3.1-3.9-4.1c-1.7-1-3.5-1.4-5.6-1.4c-2.1,0-4,0.5-5.6,1.4c-1.7,1-3,2.3-3.9,4.1
		c-1,1.8-1.4,3.8-1.4,6c0,2.2,0.5,4.2,1.4,6c1,1.8,2.3,3.1,3.9,4.1s3.5,1.4,5.6,1.4C182.9,32.6,184.8,32.2,186.4,31.2z"/>
	<path class="st1" d="M221.3,34.1c-0.7,0.7-1.7,1.2-2.7,1.5c-1.1,0.4-2.2,0.5-3.4,0.5c-2.8,0-4.9-0.7-6.4-2.2
		c-1.5-1.5-2.2-3.6-2.2-6.3V0h4v6.4h8.9v3.4h-8.9v17.6c0,1.8,0.4,3.1,1.3,4c0.9,0.9,2.1,1.4,3.8,1.4c1.8,0,3.2-0.5,4.4-1.5
		L221.3,34.1z"/>
	<path class="st1" d="M254.3,6.4v29.5h-3.8v-5.8c-1.2,2-2.8,3.5-4.7,4.5c-2,1-4.2,1.6-6.6,1.6c-2.8,0-5.3-0.6-7.5-1.9
		c-2.2-1.3-4-3-5.3-5.3c-1.3-2.3-1.9-4.9-1.9-7.8c0-2.9,0.6-5.5,1.9-7.8c1.3-2.3,3-4,5.3-5.3s4.7-1.9,7.5-1.9c2.4,0,4.5,0.5,6.5,1.5
		c1.9,1,3.5,2.4,4.7,4.3V6.4H254.3z M245.1,31.2c1.7-1,3-2.3,3.9-4.1s1.4-3.8,1.4-6c0-2.2-0.5-4.2-1.4-6c-1-1.8-2.3-3.1-3.9-4.1
		c-1.7-1-3.5-1.4-5.6-1.4c-2.1,0-4,0.5-5.6,1.4c-1.7,1-3,2.3-3.9,4.1c-1,1.8-1.4,3.8-1.4,6c0,2.2,0.5,4.2,1.4,6
		c1,1.8,2.3,3.1,3.9,4.1c1.7,1,3.5,1.4,5.6,1.4C241.5,32.6,243.4,32.2,245.1,31.2z"/>
	<path class="st1" d="M273.4,7.7c1.8-1,4.1-1.5,6.9-1.5v3.9l-1-0.1c-3.1,0-5.5,1-7.3,2.9c-1.8,1.9-2.6,4.6-2.6,8v15h-4V6.4h3.8v5.8
		C270.2,10.2,271.5,8.7,273.4,7.7z"/>
</g>
<g>
	<path class="st1" d="M103.2,52.5h-3.3L99.1,55h-0.7l2.8-8.9h0.6l2.8,8.9H104L103.2,52.5z M100.1,51.9h2.9l-1.5-4.8L100.1,51.9z"/>
	<path class="st1" d="M106.7,54.4h3.7V55H106v-8.9h0.7V54.4z"/>
	<path class="st1" d="M115.3,46.8h-2.5V55H112v-8.2h-2.5v-0.7h5.8V46.8z"/>
	<path class="st1" d="M122,51.5c0,1.2-0.3,2-0.8,2.7c-0.5,0.6-1.2,0.9-2.1,0.9c-0.9,0-1.6-0.3-2.1-0.9c-0.5-0.6-0.8-1.5-0.8-2.6
		v-1.9c0-1.1,0.3-2,0.8-2.7c0.5-0.6,1.2-1,2.1-1c0.9,0,1.6,0.3,2.1,1c0.5,0.6,0.8,1.5,0.8,2.7V51.5z M121.3,49.6
		c0-1-0.2-1.7-0.6-2.2c-0.4-0.5-0.9-0.7-1.6-0.7c-0.7,0-1.2,0.2-1.6,0.7c-0.4,0.5-0.6,1.2-0.6,2.2v2c0,1,0.2,1.7,0.6,2.2
		c0.4,0.5,0.9,0.7,1.6,0.7c0.7,0,1.2-0.2,1.6-0.7c0.4-0.5,0.6-1.2,0.6-2.2V49.6z"/>
	<path class="st1" d="M129,53.9L129,53.9L129,53.9l2.4-7.8h0.8l-2.8,8.9h-0.7l-2.8-8.9h0.8L129,53.9z"/>
	<path class="st1" d="M134.3,55h-0.7v-8.9h0.7V55z"/>
	<path class="st1" d="M141.9,52.2c-0.1,1-0.3,1.7-0.8,2.2c-0.5,0.5-1.1,0.7-2,0.7c-0.9,0-1.5-0.3-2-1c-0.5-0.7-0.7-1.5-0.8-2.7v-1.9
		c0-1.1,0.3-2,0.8-2.6s1.2-1,2.1-1c0.8,0,1.5,0.2,1.9,0.7c0.5,0.5,0.7,1.2,0.8,2.2h-0.7c-0.1-0.8-0.3-1.4-0.6-1.7
		c-0.3-0.3-0.8-0.5-1.4-0.5c-0.7,0-1.2,0.3-1.6,0.8c-0.4,0.5-0.6,1.2-0.6,2.2v1.9c0,0.9,0.2,1.7,0.5,2.2c0.4,0.5,0.9,0.8,1.5,0.8
		c0.7,0,1.2-0.2,1.5-0.5c0.3-0.3,0.5-0.9,0.6-1.7H141.9z"/>
	<path class="st1" d="M147.8,50.7h-3.5v3.6h4V55h-4.7v-8.9h4.6v0.7h-3.9v3.3h3.5V50.7z"/>
	<path class="st1" d="M155.5,55h-0.7l-4.2-7.6V55h-0.7v-8.9h0.7l4.2,7.6v-7.6h0.7V55z"/>
	<path class="st1" d="M162.5,46.8H160V55h-0.7v-8.2h-2.5v-0.7h5.8V46.8z"/>
	<path class="st1" d="M164.8,55h-0.7v-8.9h0.7V55z"/>
	<path class="st1" d="M172.6,55h-0.7l-4.2-7.6V55H167v-8.9h0.7l4.2,7.6v-7.6h0.7V55z"/>
	<path class="st1" d="M180.2,51.5c0,1.2-0.3,2-0.8,2.7c-0.5,0.6-1.2,0.9-2.1,0.9c-0.9,0-1.6-0.3-2.1-0.9c-0.5-0.6-0.8-1.5-0.8-2.6
		v-1.9c0-1.1,0.3-2,0.8-2.7c0.5-0.6,1.2-1,2.1-1c0.9,0,1.6,0.3,2.1,1c0.5,0.6,0.8,1.5,0.8,2.7V51.5z M179.5,49.6
		c0-1-0.2-1.7-0.6-2.2c-0.4-0.5-0.9-0.7-1.6-0.7c-0.7,0-1.2,0.2-1.6,0.7c-0.4,0.5-0.6,1.2-0.6,2.2v2c0,1,0.2,1.7,0.6,2.2
		c0.4,0.5,0.9,0.7,1.6,0.7c0.7,0,1.2-0.2,1.6-0.7c0.4-0.5,0.6-1.2,0.6-2.2V49.6z"/>
	<path class="st1" d="M103.2,67.6h-3.3L99.1,70h-0.7l2.8-8.9h0.6l2.8,8.9H104L103.2,67.6z M100.1,66.9h2.9l-1.5-4.8L100.1,66.9z"/>
	<path class="st1" d="M106.7,69.4h3.7V70H106v-8.9h0.7V69.4z"/>
	<path class="st1" d="M112.5,69.4h3.7V70h-4.4v-8.9h0.7V69.4z"/>
	<path class="st1" d="M121.8,65.8h-3.5v3.6h4V70h-4.7v-8.9h4.6v0.7h-3.9v3.3h3.5V65.8z"/>
	<path class="st1" d="M127.9,67.6h-3.3l-0.8,2.5h-0.7l2.8-8.9h0.6l2.8,8.9h-0.7L127.9,67.6z M124.8,66.9h2.9l-1.5-4.8L124.8,66.9z"
		/>
	<path class="st1" d="M136.4,70h-0.7l-4.2-7.6V70h-0.7v-8.9h0.7l4.2,7.6v-7.6h0.7V70z"/>
	<path class="st1" d="M138.8,69.4h4.6V70H138v-0.6l4.4-7.7h-4.3v-0.7h5.1v0.6L138.8,69.4z"/>
	<path class="st1" d="M149.1,67.6h-3.3L145,70h-0.7l2.8-8.9h0.6l2.8,8.9h-0.7L149.1,67.6z M146,66.9h2.9l-1.5-4.8L146,66.9z"/>
	<path class="st1" d="M159.6,61.8h-2.5V70h-0.7v-8.2h-2.5v-0.7h5.8V61.8z"/>
	<path class="st1" d="M165.2,65.8h-3.5v3.6h4V70h-4.7v-8.9h4.6v0.7h-3.9v3.3h3.5V65.8z"/>
	<path class="st1" d="M170.1,66.3H168V70h-0.7v-8.9h2.4c0.8,0,1.4,0.2,1.9,0.7c0.4,0.5,0.7,1.1,0.7,1.9c0,0.6-0.1,1.1-0.4,1.5
		c-0.3,0.4-0.7,0.7-1.1,0.9l1.9,3.8V70h-0.7L170.1,66.3z M168,65.7h1.9c0.5,0,0.9-0.2,1.3-0.5c0.3-0.4,0.5-0.8,0.5-1.4
		c0-0.6-0.2-1.1-0.5-1.4c-0.3-0.3-0.8-0.5-1.4-0.5H168V65.7z"/>
	<path class="st1" d="M176.9,66.3h-2.1V70h-0.7v-8.9h2.4c0.8,0,1.4,0.2,1.9,0.7c0.4,0.5,0.7,1.1,0.7,1.9c0,0.6-0.1,1.1-0.4,1.5
		c-0.3,0.4-0.7,0.7-1.1,0.9l1.9,3.8V70h-0.7L176.9,66.3z M174.9,65.7h1.9c0.5,0,0.9-0.2,1.3-0.5c0.3-0.4,0.5-0.8,0.5-1.4
		c0-0.6-0.2-1.1-0.5-1.4c-0.3-0.3-0.8-0.5-1.4-0.5h-1.7V65.7z"/>
	<path class="st1" d="M181.9,70h-0.7v-8.9h0.7V70z"/>
	<path class="st1" d="M189,61.8h-2.5V70h-0.7v-8.2h-2.5v-0.7h5.8V61.8z"/>
	<path class="st1" d="M195.8,66.6c0,1.2-0.3,2-0.8,2.7c-0.5,0.6-1.2,0.9-2.1,0.9c-0.9,0-1.6-0.3-2.1-0.9c-0.5-0.6-0.8-1.5-0.8-2.6
		v-1.9c0-1.1,0.3-2,0.8-2.7c0.5-0.6,1.2-1,2.1-1c0.9,0,1.6,0.3,2.1,1c0.5,0.6,0.8,1.5,0.8,2.7V66.6z M195.1,64.6
		c0-1-0.2-1.7-0.6-2.2c-0.4-0.5-0.9-0.7-1.6-0.7c-0.7,0-1.2,0.2-1.6,0.7c-0.4,0.5-0.6,1.2-0.6,2.2v2c0,1,0.2,1.7,0.6,2.2
		c0.4,0.5,0.9,0.7,1.6,0.7c0.7,0,1.2-0.2,1.6-0.7c0.4-0.5,0.6-1.2,0.6-2.2V64.6z"/>
	<path class="st1" d="M200.5,66.3h-2.1V70h-0.7v-8.9h2.4c0.8,0,1.4,0.2,1.9,0.7c0.4,0.5,0.7,1.1,0.7,1.9c0,0.6-0.1,1.1-0.4,1.5
		c-0.3,0.4-0.7,0.7-1.1,0.9L203,70V70h-0.7L200.5,66.3z M198.4,65.7h1.9c0.5,0,0.9-0.2,1.3-0.5c0.3-0.4,0.5-0.8,0.5-1.4
		c0-0.6-0.2-1.1-0.5-1.4c-0.3-0.3-0.8-0.5-1.4-0.5h-1.7V65.7z"/>
	<path class="st1" d="M205.4,70h-0.7v-8.9h0.7V70z"/>
	<path class="st1" d="M211.8,67.6h-3.3l-0.8,2.5H207l2.8-8.9h0.6l2.8,8.9h-0.7L211.8,67.6z M208.7,66.9h2.9l-1.5-4.8L208.7,66.9z"/>
	<path class="st1" d="M215.3,69.4h3.7V70h-4.4v-8.9h0.7V69.4z"/>
	<path class="st1" d="M224.6,65.8h-3.5v3.6h4V70h-4.7v-8.9h4.6v0.7h-3.9v3.3h3.5V65.8z"/>
	<path class="st1" d="M99.9,81.5v3.6h-0.7v-8.9h2.6c0.8,0,1.4,0.2,1.9,0.7c0.5,0.5,0.7,1.1,0.7,2c0,0.8-0.2,1.5-0.7,1.9
		c-0.4,0.5-1.1,0.7-1.9,0.7H99.9z M99.9,80.8h1.9c0.6,0,1-0.2,1.4-0.5c0.3-0.3,0.5-0.8,0.5-1.4c0-0.6-0.2-1.1-0.5-1.5
		c-0.3-0.4-0.8-0.5-1.3-0.5h-1.9V80.8z"/>
	<path class="st1" d="M110.1,80.8h-3.5v3.6h4v0.6h-4.7v-8.9h4.6v0.7h-3.9v3.3h3.5V80.8z"/>
	<path class="st1" d="M114.9,81.4h-2.1v3.7h-0.7v-8.9h2.4c0.8,0,1.4,0.2,1.9,0.7c0.4,0.5,0.7,1.1,0.7,1.9c0,0.6-0.1,1.1-0.4,1.5
		c-0.3,0.4-0.7,0.7-1.1,0.9l1.9,3.8v0.1h-0.7L114.9,81.4z M112.8,80.7h1.9c0.5,0,0.9-0.2,1.3-0.5c0.3-0.4,0.5-0.8,0.5-1.4
		c0-0.6-0.2-1.1-0.5-1.4c-0.3-0.3-0.8-0.5-1.4-0.5h-1.7V80.7z"/>
	<path class="st1" d="M125.9,82.6h-3.3l-0.8,2.5h-0.7l2.8-8.9h0.6l2.8,8.9h-0.7L125.9,82.6z M122.8,81.9h2.9l-1.5-4.8L122.8,81.9z"
		/>
	<path class="st1" d="M129.1,84.4h4.6v0.6h-5.4v-0.6l4.4-7.7h-4.3v-0.7h5.1v0.6L129.1,84.4z"/>
	<path class="st1" d="M136.1,85.1h-0.7v-8.9h0.7V85.1z"/>
	<path class="st1" d="M143.8,81.6c0,1.2-0.3,2-0.8,2.7c-0.5,0.6-1.2,0.9-2.1,0.9c-0.9,0-1.6-0.3-2.1-0.9c-0.5-0.6-0.8-1.5-0.8-2.6
		v-1.9c0-1.1,0.3-2,0.8-2.7c0.5-0.6,1.2-1,2.1-1c0.9,0,1.6,0.3,2.1,1c0.5,0.6,0.8,1.5,0.8,2.7V81.6z M143.1,79.7
		c0-1-0.2-1.7-0.6-2.2c-0.4-0.5-0.9-0.7-1.6-0.7c-0.7,0-1.2,0.2-1.6,0.7c-0.4,0.5-0.6,1.2-0.6,2.2v2c0,1,0.2,1.7,0.6,2.2
		c0.4,0.5,0.9,0.7,1.6,0.7c0.7,0,1.2-0.2,1.6-0.7c0.4-0.5,0.6-1.2,0.6-2.2V79.7z"/>
	<path class="st1" d="M151.3,85.1h-0.7l-4.2-7.6v7.6h-0.7v-8.9h0.7l4.2,7.6v-7.6h0.7V85.1z"/>
	<path class="st1" d="M154.2,85.1h-0.7v-8.9h0.7V85.1z"/>
	<path class="st1" d="M160.4,85.1h-1.1v-8.9h1.1V85.1z"/>
	<path class="st1" d="M168.2,85.1H167l-3.6-6.9v6.9h-1.1v-8.9h1.1l3.6,6.9v-6.9h1.1V85.1z"/>
	<path class="st1" d="M175.7,81.5h-1.6v3.6H173v-8.9h2.5c0.9,0,1.5,0.2,2,0.7c0.4,0.5,0.7,1.1,0.7,2c0,0.6-0.1,1-0.4,1.4
		c-0.2,0.4-0.6,0.7-1,0.9l1.7,3.8v0.1h-1.2L175.7,81.5z M174.1,80.5h1.4c0.5,0,0.8-0.2,1.1-0.5c0.3-0.3,0.4-0.7,0.4-1.2
		c0-1.1-0.5-1.7-1.6-1.7h-1.3V80.5z"/>
	<path class="st1" d="M183.9,81h-3.2v3.2h3.7v1h-4.8v-8.9h4.7v1h-3.6V80h3.2V81z"/>
	<path class="st1" d="M191.2,77.1h-2.3v7.9h-1.1v-7.9h-2.3v-1h5.8V77.1z"/>
	<path class="st1" d="M196.7,81h-3.2v3.2h3.7v1h-4.8v-8.9h4.7v1h-3.6V80h3.2V81z"/>
</g>
</svg>
