<svg xmlns="http://www.w3.org/2000/svg" viewBox="0 0 317.79 125.26"><defs><style>.cls-1{fill:#264653;}.cls-2{fill:#363636;}</style></defs><g id="Layer_2" data-name="Layer 2"><g id="Layer_1-2" data-name="Layer 1"><path class="cls-1" d="M71.55,17.49a53.89,53.89,0,1,0,53.89,53.89A53.88,53.88,0,0,0,71.55,17.49Zm.09,35.25A18.55,18.55,0,0,0,53.09,71.29H44.26A27.38,27.38,0,0,1,71.64,43.9Zm-36,18.67-9,.06A45.05,45.05,0,0,1,71.64,26.41l.18,9.19A36.22,36.22,0,0,0,35.6,71.41Z"/><path class="cls-1" d="M71.55,8.83V0A71.56,71.56,0,0,0,0,71.55H8.83A62.72,62.72,0,0,1,71.55,8.83Z"/><path class="cls-2" d="M207.48,36.42c0,9-6.23,14.72-13.72,14.72a13.52,13.52,0,0,1-9.16-3.42V61.23h-7.11V22.36h7.17v2.76a13.37,13.37,0,0,1,9.1-3.42C201.25,21.7,207.48,27.38,207.48,36.42Zm-7,0c0-5.46-3.91-8.77-8.27-8.77a11.6,11.6,0,0,0-7.55,3.14L184.6,42a11.72,11.72,0,0,0,7.61,3.14C196.57,45.18,200.43,41.88,200.48,36.42Z"/><path class="cls-2" d="M234.11,22.36h7.11V50.48h-7.11V47a12,12,0,0,1-9.1,4.14c-5.95,0-10.31-3.86-10.31-11.08V22.36h7.17V39.17c0,3.75,2.15,5.85,5.46,5.85a8.78,8.78,0,0,0,6.78-3.8Z"/><path class="cls-2" d="M277.22,32.78v17.7h-7.11V33.66c0-3.75-2.21-5.84-5.52-5.84a8.78,8.78,0,0,0-6.78,3.8V50.48H250.7V22.36h7.11v3.47a12.13,12.13,0,0,1,9.1-4.13C272.86,21.7,277.22,25.56,277.22,32.78Z"/><path class="cls-2" d="M303.3,44.41v6a21.69,21.69,0,0,1-5.85.77c-8.77,0-11.52-6.4-11.52-12.9V18.39l6.39-4.08H293v8h9.43v5.73H293v10.2c0,3.92,1.87,6.73,5.84,6.73A16.61,16.61,0,0,0,303.3,44.41Z"/><path class="cls-2" d="M308.92,12.88a4.44,4.44,0,1,1,4.41,4.24A4.28,4.28,0,0,1,308.92,12.88Zm.88,37.6V22.36h7.11V50.48Z"/><path class="cls-2" d="M213.11,88.51h7.77V89l-11.69,27.62h-3.08l-8.6-16.32L189,116.63h-3.09L174.07,89v-.5h7.78l6.34,16.93L196,90h2.7l8.16,15.27Z"/><path class="cls-2" d="M226.12,79a4.44,4.44,0,1,1,4.41,4.25A4.28,4.28,0,0,1,226.12,79Zm.88,37.6V88.51h7.11v28.12Z"/><path class="cls-2" d="M250.7,87.91v.6h10.92v5.74H250.7v22.38h-7.11V88.18c0-7.94,4.19-13.56,13-13.56,2.7,0,5.84.5,7.33,1.32v5.9a15.35,15.35,0,0,0-5.9-1.15C254,80.69,250.7,83,250.7,87.91Z"/><path class="cls-2" d="M269.39,79a4.44,4.44,0,1,1,4.41,4.25A4.28,4.28,0,0,1,269.39,79Zm.88,37.6V88.51h7.11v28.12Z"/></g></g></svg>